<svg width="575" height="575" viewBox="0 0 575 575" fill="none" xmlns="http://www.w3.org/2000/svg">
<g clip-path="url(#clip0_321_273)">
<g clip-path="url(#clip1_321_273)">
<path d="M3.05176e-05 287.133C3.05176e-05 128.554 128.554 0 287.133 0C445.712 0 574.265 128.554 574.263 287.133C574.263 445.712 445.709 574.265 287.133 574.263C128.554 574.263 3.05176e-05 445.709 3.05176e-05 287.133ZM287.133 552.941C433.935 552.941 552.941 433.935 552.941 287.133C552.941 140.33 433.935 21.3241 287.133 21.3241C140.33 21.3241 21.3241 140.33 21.3241 287.133C21.3241 433.935 140.33 552.941 287.133 552.941Z" fill="#433E49"/>
<g clip-path="url(#clip2_321_273)">
<g clip-path="url(#clip3_321_273)">
<path d="M307.665 401.283H203.852C203.356 401.283 202.879 401.085 202.528 400.734C202.177 400.383 201.979 399.907 201.979 399.41C201.979 398.913 202.177 398.437 202.528 398.085C202.879 397.734 203.356 397.537 203.852 397.537H307.67C307.916 397.537 308.159 397.586 308.386 397.68C308.613 397.775 308.82 397.913 308.993 398.087C309.167 398.261 309.305 398.468 309.398 398.695C309.492 398.923 309.54 399.166 309.54 399.412C309.54 399.658 309.491 399.902 309.397 400.129C309.302 400.356 309.164 400.562 308.99 400.736C308.816 400.91 308.609 401.047 308.382 401.141C308.154 401.235 307.911 401.283 307.665 401.283Z" fill="#433E49"/>
<path d="M255.756 401.283C255.259 401.283 254.783 401.085 254.432 400.734C254.08 400.383 253.883 399.907 253.883 399.41V358.714C253.883 358.217 254.08 357.741 254.432 357.39C254.783 357.038 255.259 356.841 255.756 356.841C256.253 356.841 256.729 357.038 257.08 357.39C257.432 357.741 257.629 358.217 257.629 358.714V399.41C257.63 399.656 257.582 399.9 257.488 400.127C257.394 400.355 257.256 400.562 257.082 400.736C256.908 400.91 256.701 401.048 256.473 401.142C256.246 401.235 256.002 401.283 255.756 401.283Z" fill="#433E49"/>
<path d="M446.334 423.144H342.777C340.956 423.141 339.211 422.417 337.923 421.13C336.636 419.842 335.912 418.097 335.909 416.276V218.007C335.909 214.221 338.991 211.139 342.777 211.139H446.334C450.12 211.139 453.202 214.221 453.202 218.007V416.276C453.202 420.062 450.12 423.144 446.334 423.144ZM342.777 214.885C341.949 214.885 341.155 215.214 340.569 215.799C339.984 216.385 339.655 217.179 339.655 218.007V416.276C339.655 418 341.053 419.398 342.777 419.398H446.334C448.057 419.398 449.456 418 449.456 416.276V218.007C449.456 217.179 449.127 216.385 448.541 215.799C447.956 215.214 447.162 214.885 446.334 214.885H342.777Z" fill="#433E49"/>
<path d="M433.069 400.254H356.042C354.222 400.251 352.476 399.527 351.189 398.24C349.902 396.952 349.177 395.207 349.175 393.386V240.897C349.175 237.111 352.256 234.029 356.042 234.029H433.063C436.849 234.029 439.931 237.111 439.931 240.897V393.386C439.931 395.207 439.208 396.953 437.921 398.241C436.635 399.528 434.889 400.253 433.069 400.254ZM356.042 237.775C355.214 237.775 354.42 238.104 353.835 238.69C353.249 239.275 352.92 240.069 352.92 240.897V393.386C352.92 395.109 354.319 396.508 356.042 396.508H433.063C434.787 396.508 436.185 395.109 436.185 393.386V240.897C436.185 240.069 435.856 239.275 435.271 238.69C434.685 238.104 433.891 237.775 433.063 237.775H356.042Z" fill="#433E49"/>
<path d="M400.614 224.47H383.407C382.911 224.47 382.434 224.272 382.083 223.921C381.732 223.57 381.534 223.094 381.534 222.597C381.534 222.1 381.732 221.624 382.083 221.272C382.434 220.921 382.911 220.724 383.407 220.724H400.614C401.11 220.724 401.587 220.921 401.938 221.272C402.289 221.624 402.487 222.1 402.487 222.597C402.487 223.094 402.289 223.57 401.938 223.921C401.587 224.272 401.11 224.47 400.614 224.47Z" fill="#433E49"/>
<path d="M407.496 410.308H383.407C382.911 410.308 382.434 410.111 382.083 409.759C381.732 409.408 381.534 408.932 381.534 408.435C381.534 407.938 381.732 407.462 382.083 407.111C382.434 406.759 382.911 406.562 383.407 406.562H407.496C407.993 406.562 408.469 406.759 408.821 407.111C409.172 407.462 409.369 407.938 409.369 408.435C409.369 408.932 409.172 409.408 408.821 409.759C408.469 410.111 407.993 410.308 407.496 410.308Z" fill="#433E49"/>
<path d="M269.601 186.031H175.913V189.777H269.601V186.031Z" fill="#433E49"/>
<path d="M333.686 186.031H284.854V189.777H333.686V186.031Z" fill="#433E49"/>
<path d="M162.857 188.044L150.865 193.309V191.785L161.049 187.45V187.405L150.865 183.07V181.546L162.857 186.811V188.044Z" fill="#433E49"/>
<path d="M148.992 196.175V190.542L156.314 187.425L148.992 184.308V178.679L164.73 185.582V189.268L148.992 196.175Z" fill="#433E49"/>
<path d="M205.52 224.485H175.913V228.231H205.52V224.485Z" fill="#433E49"/>
<path d="M333.681 224.485H220.769V228.231H333.681V224.485Z" fill="#433E49"/>
<path d="M162.857 226.493L150.865 231.757V230.234L161.049 225.898V225.853L150.865 221.518V219.995L162.857 225.259V226.493Z" fill="#433E49"/>
<path d="M148.992 234.624V228.99L156.314 225.873L148.992 222.757V217.128L164.73 224.03V227.716L148.992 234.624Z" fill="#433E49"/>
<path d="M256.785 262.933H175.913V266.679H256.785V262.933Z" fill="#433E49"/>
<path d="M333.686 262.933H272.038V266.679H333.686V262.933Z" fill="#433E49"/>
<path d="M162.857 264.946L150.865 270.21V268.687L161.049 264.352V264.307L150.865 259.971V258.448L162.857 263.712V264.946Z" fill="#433E49"/>
<path d="M148.992 273.077V267.443L156.314 264.327L148.992 261.21V255.581L164.73 262.479V266.17L148.992 273.077Z" fill="#433E49"/>
<path d="M301.641 301.386H175.913V305.132H301.641V301.386Z" fill="#433E49"/>
<path d="M162.857 303.394L150.865 308.658V307.135L161.049 302.8V302.755L150.865 298.42V296.896L162.857 302.161V303.394Z" fill="#433E49"/>
<path d="M148.992 311.525V305.891L156.314 302.78L148.992 299.663V294.029L164.73 300.937V304.618L148.992 311.525Z" fill="#433E49"/>
<path d="M421.111 313.213L405.618 319.422L404.21 315.286L415.528 311.101L404.21 306.915L405.618 302.78L421.111 308.988V313.213Z" fill="#433E49"/>
<path d="M385.79 327.623L397.827 294.549H403.341L391.229 327.623" fill="#433E49"/>
<path d="M368.024 308.993L383.522 302.785L384.926 306.92L373.613 311.106L384.931 315.291L383.527 319.427L368.029 313.218L368.024 308.993Z" fill="#433E49"/>
<path d="M339.655 360.587H135.382C131.585 360.583 127.945 359.073 125.261 356.389C122.576 353.704 121.066 350.064 121.062 346.268V165.439C121.066 161.642 122.576 158.002 125.261 155.318C127.945 152.633 131.585 151.123 135.382 151.119H376.13C379.927 151.123 383.567 152.633 386.251 155.318C388.936 158.002 390.446 161.642 390.45 165.439V214.885H342.776C341.949 214.885 341.155 215.214 340.569 215.799C339.984 216.385 339.655 217.179 339.655 218.007V360.587ZM135.382 154.865C132.579 154.869 129.891 155.985 127.909 157.967C125.927 159.949 124.812 162.636 124.808 165.439V346.268C124.812 349.071 125.927 351.758 127.909 353.74C129.891 355.722 132.579 356.837 135.382 356.841H335.909V218.007C335.909 214.221 338.991 211.139 342.776 211.139H386.704V165.439C386.7 162.636 385.585 159.949 383.603 157.967C381.62 155.985 378.933 154.869 376.13 154.865H135.382Z" fill="#433E49"/>
<path d="M339.655 360.587H135.382C131.585 360.583 127.945 359.073 125.261 356.389C122.576 353.704 121.066 350.064 121.062 346.268V327.198H339.655V360.587ZM124.808 330.939V346.263C124.812 349.066 125.927 351.753 127.909 353.735C129.891 355.717 132.579 356.832 135.382 356.836H335.909V330.934L124.808 330.939Z" fill="#433E49"/>
</g>
</g>
</g>
</g>
<defs>
<clipPath id="clip0_321_273">
<rect width="574.264" height="574.264" fill="white"/>
</clipPath>
<clipPath id="clip1_321_273">
<rect width="574.264" height="574.264" fill="white"/>
</clipPath>
<clipPath id="clip2_321_273">
<rect width="332.139" height="272.025" fill="white" transform="translate(121.062 151.119)"/>
</clipPath>
<clipPath id="clip3_321_273">
<rect width="332.139" height="272.025" fill="white" transform="translate(121.062 151.119)"/>
</clipPath>
</defs>
</svg>
