<svg width="966" height="845" viewBox="0 0 966 845" fill="none" xmlns="http://www.w3.org/2000/svg">
<g clip-path="url(#clip0_321_273)">
<g clip-path="url(#clip1_321_273)">
<path d="M218.53 650.31H236.481L272.385 710.739H273.902L309.805 650.31H327.757L280.981 726.415V779.765H265.305V726.415L218.53 650.31ZM361.89 782.04C355.738 782.04 350.154 780.881 345.14 778.564C340.125 776.204 336.143 772.812 333.193 768.387C330.243 763.92 328.768 758.526 328.768 752.205C328.768 746.642 329.864 742.133 332.055 738.678C334.247 735.18 337.175 732.441 340.841 730.461C344.508 728.48 348.553 727.005 352.978 726.036C357.445 725.025 361.933 724.224 366.442 723.634C372.341 722.875 377.124 722.307 380.79 721.927C384.499 721.506 387.196 720.811 388.881 719.841C390.609 718.872 391.473 717.187 391.473 714.785V714.279C391.473 708.042 389.766 703.196 386.353 699.74C382.982 696.285 377.862 694.557 370.993 694.557C363.871 694.557 358.287 696.116 354.242 699.235C350.197 702.353 347.352 705.682 345.709 709.222L331.55 704.165C334.078 698.266 337.449 693.672 341.663 690.385C345.919 687.056 350.555 684.739 355.569 683.432C360.626 682.084 365.599 681.41 370.487 681.41C373.605 681.41 377.187 681.789 381.233 682.547C385.32 683.264 389.26 684.76 393.053 687.035C396.888 689.311 400.069 692.745 402.598 697.339C405.126 701.932 406.39 708.084 406.39 715.796V779.765H391.473V766.617H390.714C389.703 768.724 388.017 770.978 385.657 773.38C383.298 775.782 380.158 777.826 376.239 779.512C372.32 781.197 367.537 782.04 361.89 782.04ZM364.166 768.64C370.066 768.64 375.038 767.481 379.084 765.163C383.171 762.845 386.247 759.853 388.312 756.187C390.419 752.521 391.473 748.665 391.473 744.62V730.966C390.841 731.725 389.45 732.42 387.301 733.052C385.194 733.642 382.75 734.169 379.969 734.633C377.229 735.054 374.554 735.433 371.941 735.77C369.37 736.065 367.284 736.318 365.683 736.529C361.806 737.035 358.182 737.856 354.811 738.994C351.482 740.09 348.785 741.754 346.72 743.988C344.697 746.179 343.686 749.171 343.686 752.964C343.686 758.147 345.603 762.066 349.438 764.721C353.315 767.333 358.224 768.64 364.166 768.64ZM433.618 779.765V682.674H448.536V779.765H433.618ZM441.203 666.492C438.296 666.492 435.788 665.502 433.681 663.521C431.617 661.54 430.584 659.16 430.584 656.378C430.584 653.597 431.617 651.216 433.681 649.236C435.788 647.255 438.296 646.265 441.203 646.265C444.111 646.265 446.597 647.255 448.662 649.236C450.769 651.216 451.823 653.597 451.823 656.378C451.823 659.16 450.769 661.54 448.662 663.521C446.597 665.502 444.111 666.492 441.203 666.492ZM489.765 744.367L489.512 725.91H492.546L535.023 682.674H553.481L508.222 728.438H506.958L489.765 744.367ZM475.858 779.765V650.31H490.776V779.765H475.858ZM537.552 779.765L499.626 731.725L510.245 721.358L556.515 779.765H537.552ZM608.126 781.787C599.361 781.787 591.67 779.701 585.054 775.53C578.48 771.358 573.339 765.521 569.631 758.02C565.965 750.519 564.132 741.754 564.132 731.725C564.132 721.611 565.965 712.783 569.631 705.24C573.339 697.697 578.48 691.839 585.054 687.667C591.67 683.495 599.361 681.41 608.126 681.41C616.891 681.41 624.561 683.495 631.134 687.667C637.75 691.839 642.892 697.697 646.558 705.24C650.266 712.783 652.12 721.611 652.12 731.725C652.12 741.754 650.266 750.519 646.558 758.02C642.892 765.521 637.75 771.358 631.134 775.53C624.561 779.701 616.891 781.787 608.126 781.787ZM608.126 768.387C614.784 768.387 620.262 766.68 624.561 763.267C628.859 759.853 632.04 755.365 634.105 749.803C636.17 744.24 637.203 738.214 637.203 731.725C637.203 725.235 636.17 719.188 634.105 713.584C632.04 707.979 628.859 703.449 624.561 699.993C620.262 696.538 614.784 694.81 608.126 694.81C601.468 694.81 595.99 696.538 591.691 699.993C587.393 703.449 584.211 707.979 582.146 713.584C580.082 719.188 579.049 725.235 579.049 731.725C579.049 738.214 580.082 744.24 582.146 749.803C584.211 755.365 587.393 759.853 591.691 763.267C595.99 766.68 601.468 768.387 608.126 768.387ZM676.914 779.765V650.31H691.832V698.097H693.096C694.192 696.411 695.709 694.262 697.647 691.65C699.628 688.995 702.451 686.635 706.118 684.57C709.826 682.463 714.841 681.41 721.162 681.41C729.337 681.41 736.543 683.453 742.779 687.541C749.016 691.629 753.883 697.423 757.381 704.924C760.879 712.425 762.627 721.274 762.627 731.472C762.627 741.754 760.879 750.667 757.381 758.21C753.883 765.711 749.037 771.526 742.843 775.656C736.648 779.744 729.505 781.787 721.414 781.787C715.178 781.787 710.184 780.755 706.434 778.69C702.683 776.583 699.797 774.202 697.774 771.547C695.751 768.85 694.192 766.617 693.096 764.847H691.326V779.765H676.914ZM691.579 731.219C691.579 738.552 692.654 745.02 694.803 750.625C696.952 756.187 700.092 760.549 704.221 763.709C708.351 766.828 713.408 768.387 719.392 768.387C725.628 768.387 730.833 766.743 735.005 763.456C739.219 760.127 742.379 755.66 744.486 750.056C746.635 744.409 747.71 738.13 747.71 731.219C747.71 724.392 746.656 718.24 744.549 712.762C742.484 707.241 739.345 702.88 735.131 699.677C730.959 696.432 725.713 694.81 719.392 694.81C713.324 694.81 708.225 696.348 704.095 699.424C699.965 702.459 696.847 706.715 694.74 712.193C692.633 717.629 691.579 723.971 691.579 731.219Z" fill="#433E49"/>
</g>
</g>
<g clip-path="url(#clip2_321_273)">
<path d="M767.705 621.686H731.669V615.784L755.162 582.829H731.618V574.623H767.666V580.525L744.147 613.48H767.705V621.686Z" fill="#433E49"/>
</g>
<path d="M704 592.996C704 567.595 724.595 547 749.996 547C775.405 547 796 567.595 796 592.996C796 618.405 775.405 639 749.996 639C724.595 639 704 618.405 704 592.996ZM749.996 634.078C772.691 634.078 791.078 615.691 791.078 592.996C791.078 570.309 772.691 551.913 749.996 551.913C727.309 551.913 708.922 570.309 708.922 592.996C708.922 615.691 727.309 634.078 749.996 634.078Z" fill="#433E49"/>
<g clip-path="url(#clip3_321_273)">
<g clip-path="url(#clip4_321_273)">
<path d="M190 287.133C190 128.554 318.554 0 477.133 0C635.712 0 764.265 128.554 764.263 287.133C764.263 445.712 635.709 574.265 477.133 574.263C318.554 574.263 190 445.709 190 287.133ZM477.133 552.941C623.935 552.941 742.941 433.935 742.941 287.133C742.941 140.33 623.935 21.3241 477.133 21.3241C330.33 21.3241 211.324 140.33 211.324 287.133C211.324 433.935 330.33 552.941 477.133 552.941Z" fill="#433E49"/>
<g clip-path="url(#clip5_321_273)">
<g clip-path="url(#clip6_321_273)">
<path d="M497.665 401.283H393.852C393.356 401.283 392.879 401.085 392.528 400.734C392.177 400.383 391.979 399.907 391.979 399.41C391.979 398.913 392.177 398.437 392.528 398.085C392.879 397.734 393.356 397.537 393.852 397.537H497.67C497.916 397.537 498.159 397.586 498.386 397.68C498.613 397.775 498.82 397.913 498.993 398.087C499.167 398.261 499.305 398.468 499.398 398.695C499.492 398.923 499.54 399.166 499.54 399.412C499.54 399.658 499.491 399.902 499.397 400.129C499.302 400.356 499.164 400.562 498.99 400.736C498.816 400.91 498.609 401.047 498.382 401.141C498.154 401.235 497.911 401.283 497.665 401.283Z" fill="#433E49"/>
<path d="M445.756 401.283C445.259 401.283 444.783 401.085 444.432 400.734C444.08 400.383 443.883 399.907 443.883 399.41V358.714C443.883 358.217 444.08 357.741 444.432 357.39C444.783 357.038 445.259 356.841 445.756 356.841C446.253 356.841 446.729 357.038 447.08 357.39C447.432 357.741 447.629 358.217 447.629 358.714V399.41C447.63 399.656 447.582 399.9 447.488 400.127C447.394 400.355 447.256 400.562 447.082 400.736C446.908 400.91 446.701 401.048 446.473 401.142C446.246 401.235 446.002 401.283 445.756 401.283Z" fill="#433E49"/>
<path d="M636.334 423.144H532.776C530.956 423.141 529.211 422.417 527.923 421.13C526.636 419.842 525.912 418.097 525.909 416.276V218.007C525.909 214.221 528.991 211.139 532.776 211.139H636.334C640.12 211.139 643.202 214.221 643.202 218.007V416.276C643.202 420.062 640.12 423.144 636.334 423.144ZM532.776 214.885C531.949 214.885 531.155 215.214 530.569 215.799C529.984 216.385 529.655 217.179 529.655 218.007V416.276C529.655 418 531.053 419.398 532.776 419.398H636.334C638.057 419.398 639.456 418 639.456 416.276V218.007C639.456 217.179 639.127 216.385 638.541 215.799C637.956 215.214 637.162 214.885 636.334 214.885H532.776Z" fill="#433E49"/>
<path d="M623.068 400.254H546.042C544.222 400.251 542.476 399.527 541.189 398.24C539.902 396.952 539.177 395.207 539.175 393.386V240.897C539.175 237.111 542.256 234.029 546.042 234.029H623.063C626.849 234.029 629.931 237.111 629.931 240.897V393.386C629.931 395.207 629.208 396.953 627.921 398.241C626.635 399.528 624.889 400.253 623.068 400.254ZM546.042 237.775C545.214 237.775 544.42 238.104 543.835 238.69C543.249 239.275 542.92 240.069 542.92 240.897V393.386C542.92 395.109 544.319 396.508 546.042 396.508H623.063C624.787 396.508 626.185 395.109 626.185 393.386V240.897C626.185 240.069 625.856 239.275 625.271 238.69C624.685 238.104 623.891 237.775 623.063 237.775H546.042Z" fill="#433E49"/>
<path d="M590.614 224.47H573.407C572.911 224.47 572.434 224.272 572.083 223.921C571.732 223.57 571.534 223.094 571.534 222.597C571.534 222.1 571.732 221.624 572.083 221.272C572.434 220.921 572.911 220.724 573.407 220.724H590.614C591.11 220.724 591.587 220.921 591.938 221.272C592.289 221.624 592.487 222.1 592.487 222.597C592.487 223.094 592.289 223.57 591.938 223.921C591.587 224.272 591.11 224.47 590.614 224.47Z" fill="#433E49"/>
<path d="M597.496 410.308H573.407C572.911 410.308 572.434 410.111 572.083 409.759C571.732 409.408 571.534 408.932 571.534 408.435C571.534 407.938 571.732 407.462 572.083 407.111C572.434 406.759 572.911 406.562 573.407 406.562H597.496C597.993 406.562 598.469 406.759 598.821 407.111C599.172 407.462 599.369 407.938 599.369 408.435C599.369 408.932 599.172 409.408 598.821 409.759C598.469 410.111 597.993 410.308 597.496 410.308Z" fill="#433E49"/>
<path d="M459.601 186.031H365.913V189.777H459.601V186.031Z" fill="#433E49"/>
<path d="M523.686 186.031H474.854V189.777H523.686V186.031Z" fill="#433E49"/>
<path d="M352.857 188.044L340.865 193.309V191.785L351.049 187.45V187.405L340.865 183.07V181.546L352.857 186.811V188.044Z" fill="#433E49"/>
<path d="M338.992 196.175V190.542L346.314 187.425L338.992 184.308V178.679L354.73 185.582V189.268L338.992 196.175Z" fill="#433E49"/>
<path d="M395.52 224.485H365.913V228.231H395.52V224.485Z" fill="#433E49"/>
<path d="M523.681 224.485H410.769V228.231H523.681V224.485Z" fill="#433E49"/>
<path d="M352.857 226.493L340.865 231.757V230.234L351.049 225.898V225.853L340.865 221.518V219.995L352.857 225.259V226.493Z" fill="#433E49"/>
<path d="M338.992 234.624V228.99L346.314 225.873L338.992 222.757V217.128L354.73 224.03V227.716L338.992 234.624Z" fill="#433E49"/>
<path d="M446.785 262.933H365.913V266.679H446.785V262.933Z" fill="#433E49"/>
<path d="M523.686 262.933H462.038V266.679H523.686V262.933Z" fill="#433E49"/>
<path d="M352.857 264.946L340.865 270.21V268.687L351.049 264.352V264.307L340.865 259.971V258.448L352.857 263.712V264.946Z" fill="#433E49"/>
<path d="M338.992 273.077V267.443L346.314 264.327L338.992 261.21V255.581L354.73 262.479V266.17L338.992 273.077Z" fill="#433E49"/>
<path d="M491.641 301.386H365.913V305.132H491.641V301.386Z" fill="#433E49"/>
<path d="M352.857 303.394L340.865 308.658V307.135L351.049 302.8V302.755L340.865 298.42V296.896L352.857 302.161V303.394Z" fill="#433E49"/>
<path d="M338.992 311.525V305.891L346.314 302.78L338.992 299.663V294.029L354.73 300.937V304.618L338.992 311.525Z" fill="#433E49"/>
<path d="M611.111 313.213L595.618 319.422L594.21 315.286L605.528 311.101L594.21 306.915L595.618 302.78L611.111 308.988V313.213Z" fill="#433E49"/>
<path d="M575.79 327.623L587.827 294.549H593.341L581.229 327.623" fill="#433E49"/>
<path d="M558.024 308.993L573.522 302.785L574.926 306.92L563.613 311.106L574.931 315.291L573.527 319.427L558.029 313.218L558.024 308.993Z" fill="#433E49"/>
<path d="M529.655 360.587H325.382C321.585 360.583 317.945 359.073 315.261 356.389C312.576 353.704 311.066 350.064 311.062 346.268V165.439C311.066 161.642 312.576 158.002 315.261 155.318C317.945 152.633 321.585 151.123 325.382 151.119H566.13C569.927 151.123 573.567 152.633 576.251 155.318C578.936 158.002 580.446 161.642 580.45 165.439V214.885H532.776C531.949 214.885 531.155 215.214 530.569 215.799C529.984 216.385 529.655 217.179 529.655 218.007V360.587ZM325.382 154.865C322.579 154.869 319.891 155.985 317.909 157.967C315.927 159.949 314.812 162.636 314.808 165.439V346.268C314.812 349.071 315.927 351.758 317.909 353.74C319.891 355.722 322.579 356.837 325.382 356.841H525.909V218.007C525.909 214.221 528.991 211.139 532.776 211.139H576.704V165.439C576.7 162.636 575.585 159.949 573.602 157.967C571.62 155.985 568.933 154.869 566.13 154.865H325.382Z" fill="#433E49"/>
<path d="M529.655 360.587H325.382C321.585 360.583 317.945 359.073 315.261 356.389C312.576 353.704 311.066 350.064 311.062 346.268V327.198H529.655V360.587ZM314.808 330.939V346.263C314.812 349.066 315.927 351.753 317.909 353.735C319.891 355.717 322.579 356.832 325.382 356.836H525.909V330.934L314.808 330.939Z" fill="#433E49"/>
</g>
</g>
</g>
</g>
<defs>
<clipPath id="clip0_321_273">
<rect width="999.302" height="236.446" fill="white" transform="translate(0 608)"/>
</clipPath>
<clipPath id="clip1_321_273">
<rect width="999.302" height="236.446" fill="white" transform="translate(0 608)"/>
</clipPath>
<clipPath id="clip2_321_273">
<rect width="36.0869" height="47.0739" fill="white" transform="translate(731.618 574.618)"/>
</clipPath>
<clipPath id="clip3_321_273">
<rect width="574.264" height="574.264" fill="white" transform="translate(190)"/>
</clipPath>
<clipPath id="clip4_321_273">
<rect width="574.264" height="574.264" fill="white" transform="translate(190)"/>
</clipPath>
<clipPath id="clip5_321_273">
<rect width="332.139" height="272.025" fill="white" transform="translate(311.062 151.119)"/>
</clipPath>
<clipPath id="clip6_321_273">
<rect width="332.139" height="272.025" fill="white" transform="translate(311.062 151.119)"/>
</clipPath>
</defs>
</svg>
